<?xml version="1.0" encoding="UTF-8" standalone="no"?>
<!DOCTYPE svg PUBLIC "-//W3C//DTD SVG 20010904//EN"
"http://www.w3.org/TR/2001/REC-SVG-20010904/DTD/svg10.dtd">
<!-- Created with Inkscape (http://www.inkscape.org/) -->
<svg
   width="500"
   height="500"
   xmlns="http://www.w3.org/2000/svg"
   xmlns:sodipodi="http://sodipodi.sourceforge.net/DTD/sodipodi-0.dtd"
   xmlns:inkscape="http://www.inkscape.org/namespaces/inkscape"
   xmlns:xlink="http://www.w3.org/1999/xlink"
   id="svg1"
   sodipodi:version="0.32"
   inkscape:version="0.37"
   sodipodi:docname="BUS-Logo-BVG.svg"
   sodipodi:docbase="/home/chrizz/temp">
  <defs
     id="defs5" />
  <sodipodi:namedview
     id="base"
     pagecolor="#ffffff"
     bordercolor="#666666"
     borderopacity="1.0"
     inkscape:pageopacity="0.0"
     inkscape:pageshadow="2"
     inkscape:zoom="0.43415836"
     inkscape:cx="305.259526"
     inkscape:cy="417.849473"
     inkscape:window-width="955"
     inkscape:window-height="706"
     inkscape:window-x="61"
     inkscape:window-y="0" />
  <circle
     fill="#993399"
     cx="249.5"
     cy="249.5"
     r="250"
     id="circle2"
     style="fill:#a3007c;fill-opacity:1;" />
  <path
     transform="scale(0.935925,1.068462)"
     fill="#FFF"
     d="M178.20792 263.87558C178.20776 271.38825 176.67741 278.10092 173.61686 284.0136C170.62558 289.92634 166.48668 294.83041 161.20016 298.72583C155.07863 303.31689 148.33118 306.58627 140.9578 308.53399C133.65374 310.48171 124.36731 311.45557 113.09846 311.45557L45.276115 311.45557L45.276115 156.09022L105.58583 156.09022C118.10679 156.09037 127.2541 156.50774 133.0278 157.34232C138.87084 158.17721 144.64443 160.02059 150.34858 162.87245C156.26117 165.86374 160.64353 169.8983 163.49568 174.97613C166.41712 179.98469 167.87791 185.72349 167.87805 192.19258C167.87791 199.70532 165.89541 206.34842 161.93055 212.12191C157.96542 217.82604 152.36574 222.27796 145.13148 225.4777L145.13148 226.31243C155.28731 228.3298 163.32164 232.50348 169.2345 238.83348C175.21663 245.16364 178.20776 253.51099 178.20792 263.87558M126.87162 200.01823C126.87151 197.44458 126.21068 194.87081 124.88912 192.29692C123.63691 189.72327 121.37617 187.81033 118.10688 186.5581C115.18521 185.44525 111.53325 184.85398 107.15096 184.78429C102.83808 184.64529 96.751466 184.57573 88.891101 184.57561L85.134787 184.57561L85.134787 217.44336L91.395311 217.44336C97.725325 217.44345 103.11633 217.33911 107.56833 217.13033C112.02017 216.92174 115.53302 216.22613 118.10688 215.04349C121.72398 213.44368 124.08906 211.39162 125.20214 208.88731C126.31502 206.31364 126.87151 203.35729 126.87162 200.01823M136.67977 263.24953C136.67966 258.31072 135.7058 254.51963 133.75819 251.87624C131.87993 249.16341 128.64533 247.14613 124.05438 245.8244C120.92402 244.92017 116.61122 244.43324 111.11596 244.36361C105.62053 244.29412 99.881725 244.25934 93.899521 244.25927L85.134787 244.25927L85.134787 282.97018L88.056365 282.97018C99.325235 282.97021 107.39435 282.93543 112.26373 282.86584C117.13293 282.79631 121.61964 281.89201 125.72385 280.15294C129.89743 278.41394 132.74945 276.11842 134.2799 273.26637C135.8797 270.34483 136.67966 267.00589 136.67977 263.24953M344.11181 255.21519C344.11166 274.41417 338.26851 289.12639 326.58235 299.35189C314.89591 309.57741 297.67948 314.69017 274.93302 314.69017C252.18638 314.69017 234.96996 309.57741 223.28369 299.35189C211.66692 289.12639 205.85855 274.44895 205.85857 255.31953L205.85857 156.09022L246.13461 156.09022L246.13461 253.02401C246.13455 263.80607 248.39529 271.8404 252.91684 277.12702C257.43826 282.41372 264.77698 285.05705 274.93302 285.05702C284.94976 285.05705 292.2537 282.51806 296.84486 277.44005C301.50535 272.36211 303.83566 264.22344 303.83577 253.02401L303.83577 156.09022L344.11181 156.09022L344.11181 255.21519M506.05073 262.62348C506.05059 277.92701 499.5466 290.37849 486.53876 299.97794C473.60023 309.50785 456.00122 314.2728 433.74167 314.2728C420.87276 314.2728 409.63861 313.15982 400.03918 310.93386C390.50925 308.63833 381.57062 305.75154 373.22327 302.27346L373.22327 265.02334L377.60564 265.02334C385.88342 271.63171 395.13507 276.70969 405.36063 280.25729C415.65566 283.80494 425.53337 285.57876 434.99378 285.57873C437.42835 285.57876 440.62817 285.37007 444.59325 284.95268C448.55816 284.53534 451.79276 283.83973 454.29706 282.86584C457.35767 281.61376 459.86188 280.04863 461.80969 278.17045C463.82687 276.29232 464.83551 273.50987 464.83561 269.82308C464.83551 266.41462 463.37472 263.49304 460.45324 261.05835C457.60113 258.55419 453.39267 256.64125 447.82785 255.31953C441.98462 253.92836 435.79366 252.64148 429.25497 251.45887C422.7857 250.20683 416.69908 248.6417 410.9951 246.76348C397.91753 242.52031 388.49197 236.7815 382.7184 229.54704C377.01435 222.24318 374.16234 213.20021 374.16235 202.4181C374.16234 187.94946 380.63154 176.15881 393.56998 167.04614C406.57791 157.86419 423.27262 153.27314 443.65417 153.27298C453.8796 153.27314 463.96599 154.28178 473.91337 156.2989C483.93009 158.24678 492.59047 160.7162 499.89455 163.70719L499.89455 199.49652L495.61652 199.49652C489.35587 194.48822 481.66935 190.31454 472.55693 186.97547C463.51384 183.56709 454.26219 181.86284 444.80193 181.86271C441.46291 181.86284 438.12396 182.10631 434.78509 182.59311C431.51564 183.0106 428.3506 183.84534 425.28997 185.09732C422.57701 186.14086 420.24671 187.74077 418.29905 189.89705C416.35127 191.98401 415.37742 194.38388 415.37747 197.09665C415.37742 201.20089 416.94255 204.36593 420.07286 206.59178C423.20306 208.74829 429.11577 210.73079 437.81102 212.53928C443.51497 213.72192 448.97553 214.86968 454.19272 215.98257C459.47929 217.09565 465.14853 218.62599 471.20048 220.57362C483.09535 224.46915 491.86008 229.79059 497.49468 236.53796C503.19857 243.21592 506.05059 251.91108 506.05073 262.62348"
     id="path3" />
</svg>
