<?xml version="1.0" encoding="utf-8"?>
<!-- Generator: Adobe Illustrator 15.0.1, SVG Export Plug-In . SVG Version: 6.00 Build 0)  -->
<!DOCTYPE svg PUBLIC "-//W3C//DTD SVG 1.1//EN" "http://www.w3.org/Graphics/SVG/1.1/DTD/svg11.dtd">
<svg version="1.1" id="Ebene_1" xmlns="http://www.w3.org/2000/svg" xmlns:xlink="http://www.w3.org/1999/xlink" x="0px" y="0px"
	 width="350px" height="353px" viewBox="0 0 350 353" enable-background="new 0 0 350 353" xml:space="preserve">
<g>
	<path fill="#006F35" d="M175.4,341.586c-91.5,0-165.899-74.399-165.899-165.9c0-91.5,74.399-165.9,165.899-165.9
		c91.501,0,165.901,74.4,165.901,165.9C341.303,267.187,266.901,341.586,175.4,341.586z"/>
	<path fill="#FFFFFF" d="M133.4,102.186c0-14.4,13.2-26.7,36.301-26.7c40.8,0,75.6,21.9,98.7,46.8v-43.5
		c-26.7-20.7-60.301-33-97.801-33c-45,0-95.1,27.601-95.1,78.9c0,97.801,148.5,62.701,148.5,119.4c0,15-19.799,29.101-44.399,29.101
		c-40.2,0-80.1-24.3-102-55.8v52.199c23.1,20.7,65.4,37.2,102,37.2c65.7,0,104.701-46.801,104.701-87.001
		C284.303,120.186,133.4,162.784,133.4,102.186z"/>
</g>
</svg>
