<?xml version="1.0" encoding="UTF-8" standalone="no"?>
<svg width="100" height="100" xmlns="http://www.w3.org/2000/svg">
	<title>Signet Tram</title>
	<desc>© VBB http://www.vbb.de/de/article/ueber-uns/media-service/produktsignets/3306.html</desc>

	<g id="tram" fill-rule="evenodd">
		<path fill="#D9222A" d="M.04 99.87H99.5V.41H.04z"/>
		<path fill="#fff" d="M26.29 36.72h-7.46v25.4h-8.17v-25.4H3.82v-6.01H26.3z"/>
		<path d="M38.03 46.31c-.51-.1-1.22-.1-1.74-.1-3.26 0-4.9 1.94-4.9 5.82v10.1h-7.55V40.09h6.63l.41 4.39c1.23-3.98 3.37-5 6.74-5h.41v6.83zm18.99 15.82H50.8l-.3-2.96c-1.33 2.45-3.88 3.26-6.23 3.26-3.98 0-6.43-2.34-6.43-6.83 0-5.1 3.67-7.35 11.43-7.35h1.13v-.71c0-2.04-1.03-3.06-3.78-3.06-2.76 0-4.9.4-6.44.92v-4.9a29.7 29.7 0 0 1 7.77-1.12c6.43 0 9.08 3.67 9.08 7.24v15.5zm-6.63-8.06v-2.35h-.51c-4.2 0-5.52 1.02-5.52 3.57 0 1.94 1.02 2.86 2.45 2.86 1.74 0 3.58-.92 3.58-4.08zm43.5 8.06h-7.46V48.86c0-1.83-.92-2.65-2.35-2.65-2.04 0-2.85 1.53-2.85 3.37v12.55h-7.25V48.86c0-1.83-.92-2.65-2.35-2.65-2.05 0-2.86 1.53-2.86 3.37v12.55H61.3V40.09h7.15v3.88c.4-2.86 2.96-4.5 6.13-4.5 2.75 0 4.9 1.54 5.92 3.89 1.12-2.25 3.17-3.88 6.64-3.88 4.08 0 6.74 2.86 6.74 7.34v15.3z" fill="#fff"/>
	</g>
</svg>
